<?xml version="1.0" ?><!DOCTYPE svg  PUBLIC '-//W3C//DTD SVG 1.1//EN'  'http://www.w3.org/Graphics/SVG/1.1/DTD/svg11.dtd'><svg enable-background="new 0 0 512 512" height="512px" id="fast_x5F_money_x5F_transfer" version="1.1" viewBox="0 0 512 512" width="512px" xml:space="preserve" xmlns="http://www.w3.org/2000/svg" xmlns:xlink="http://www.w3.org/1999/xlink"><g><path d="M62.591,337.176H42.702c-2.209,0-4,1.791-4,4s1.791,4,4,4h19.889c2.209,0,4-1.791,4-4S64.8,337.176,62.591,337.176z"/><path d="M469.349,280.977h-64.622V169.197h44.926v6c0,1.618,0.975,3.076,2.47,3.695c0.495,0.205,1.015,0.305,1.53,0.305   c1.041,0,2.063-0.406,2.829-1.171l10-10c1.562-1.563,1.562-4.095,0-5.657l-10-10c-1.145-1.144-2.864-1.485-4.359-0.867   c-1.495,0.619-2.47,2.078-2.47,3.695v6h-44.926V27.045c0-10.371-8.416-18.787-18.787-18.787H143.565   c-4.566,0-8.768,1.627-12.023,4.347c-2.465,2.053-4.396,4.736-5.55,7.797c-0.789,2.064-1.214,4.299-1.214,6.643v72.548H71.46   c-8.89,0-16.1,7.2-16.14,16.09c0-0.03-0.01-0.05-0.01-0.07v110.75c0,9.8,7.95,17.74,17.74,17.74h25.28c2.762,0,5-2.238,5-5v-11.51   h21.448V337.18H86.906c-2.21,0-4,1.79-4,4s1.79,4,4,4h37.872v139.775c0,10.371,8.416,18.787,18.787,18.787h242.375   c10.371,0,18.787-8.416,18.787-18.787v-75.98h64.622c2.182,0,3.95-1.769,3.95-3.949v-120.1   C473.299,282.744,471.53,280.977,469.349,280.977z M288.73,24.248h16c2.209,0,4,1.791,4,4c0,2.209-1.791,4-4,4h-16   c-2.209,0-4-1.791-4-4C284.73,26.039,286.521,24.248,288.73,24.248z M224.73,24.248h40c2.209,0,4,1.791,4,4c0,2.209-1.791,4-4,4   h-40c-2.209,0-4-1.791-4-4C220.73,26.039,222.521,24.248,224.73,24.248z M124.778,219.591v0.002H103.33v-82.97c0-2.762-2.238-5-5-5   H71.32c-1.03,0-2.04-0.1-3.01-0.29c-2.93-0.56-5-3.2-5-6.17v-8.41c0-5.059,4.101-9.16,9.16-9.16h223.579v112H140.736v-0.002   H124.778z M264.716,484.311c-5.366,0-9.715-4.35-9.715-9.715s4.349-9.715,9.715-9.715s9.716,4.35,9.716,9.715   S270.082,484.311,264.716,484.311z M388.736,441.775c0,3.58-2.9,6.47-6.48,6.47h-235.05c-3.58,0-6.47-2.89-6.47-6.47V345.18h39.81   v6c0,0.71,0.19,1.391,0.53,1.98c0.43,0.75,1.11,1.359,1.94,1.709c0.5,0.211,1.01,0.311,1.53,0.311c1.04,0,2.06-0.41,2.83-1.18   l10-10c1.56-1.561,1.56-4.09,0-5.65l-10-10c-1.15-1.15-2.86-1.49-4.36-0.87c-1.49,0.62-2.47,2.08-2.47,3.7v6h-39.81V227.593   h155.313v13.588c0,4.421,3.584,8.005,8.005,8.005s8.005-3.584,8.005-8.005v-13.588v-58.396h19.639c2.209,0,4-1.791,4-4   s-1.791-4-4-4h-19.639V99.593V89.214c0-4.421-3.584-8.005-8.005-8.005s-8.005,3.584-8.005,8.005v10.378H140.736V62.715   c0-3.57,2.89-6.47,6.47-6.47h235.05c3.58,0,6.48,2.9,6.48,6.47v98.482h-32.724c-2.209,0-4,1.791-4,4s1.791,4,4,4h32.724v111.779   H233.322v-8.036c0-4.421-3.584-8.005-8.005-8.005s-8.004,3.584-8.004,8.005v8.036h-0.002h-0.012v127.998h0.012h0.002v7.947   c0,4.421,3.583,8.005,8.004,8.005s8.005-3.584,8.005-8.005v-7.947h155.414V441.775z M465.298,399.034c0,1.071-0.868,1.94-1.94,1.94   h-58.631h-15.99H233.322v-7.996h39.413v-8.018h-39.413v-95.984h155.414h15.99h58.631c1.072,0,1.94,0.869,1.94,1.939V399.034z"/><path d="M345.299,305.367c-23.987,0-43.434,19.445-43.434,43.432c0,23.988,19.446,43.434,43.434,43.434   c23.986,0,43.432-19.445,43.432-43.434C388.73,324.813,369.285,305.367,345.299,305.367z M349.02,367.461v7.341h-7.042v-7.335   c-6.628-1.022-10.462-5.056-10.909-10.693h8.367c0.638,2.975,2.88,4.801,6.256,4.801c4.18,0,5.429-2.012,5.429-4.236   c0-2.789-1.479-4.14-6.747-5.681c-9.683-2.849-12.521-6.446-12.521-11.868c0-5.888,4.258-9.517,9.743-10.551v-6.441h6.994v6.4   c7.019,1.098,9.657,5.425,10.063,10.06h-8.371c-0.383-1.589-1.069-4.176-5.397-4.177c-3.514,0-4.58,2.086-4.58,3.868   c0,2.464,1.313,3.574,7.441,5.351c8.5,2.431,11.783,5.908,11.783,12.031C359.527,362.906,355.301,366.508,349.02,367.461z"/><rect height="8.018" width="40.05" x="412.445" y="300.277"/><path d="M194.943,158.638c0-2.643-2.004-4.006-5.013-4.006h-7.432v8.203h7.208C193.412,162.835,194.943,161.172,194.943,158.638z"/><path d="M195.659,173.621c0-2.907-1.876-4.762-6.167-4.762h-6.993v9.793h7.036C193.749,178.653,195.659,176.891,195.659,173.621z"/><path d="M187.783,203.547c19.862,0,35.962-16.101,35.962-35.963c0-19.861-16.101-35.962-35.962-35.962   s-35.963,16.101-35.963,35.962C151.82,187.446,167.921,203.547,187.783,203.547z M174.843,148.607h9.119v-6.529h6.592v6.529h0.047   c8.715,0,12.021,4.543,12.021,9.229c0,4.066-2.155,6.707-4.591,7.821c2.432,0.917,5.622,3.48,5.622,8.222   c0,6.173-4.848,10.798-12.52,10.798h-0.58v6.626h-6.592v-6.626h-9.119V148.607z"/></g></svg>